<mxfile host="app.diagrams.net" modified="2023-12-05T07:52:30.208Z" agent="Mozilla/5.0 (Windows NT 10.0; Win64; x64) AppleWebKit/537.36 (KHTML, like Gecko) Chrome/119.0.0.0 Safari/537.36" version="22.1.5" etag="t6a640wtY7q0jWDSK3kq" type="github">
  <diagram name="Страница — 1" id="G-JK8_RctujHKEv6WD_-">
    <mxGraphModel>
      <root>
        <mxCell id="0" />
        <mxCell id="1" parent="0" />
      </root>
    </mxGraphModel>
  </diagram>
</mxfile>
